<svg width="2500" height="534" viewBox="0 0 2500 534" fill="none" xmlns="http://www.w3.org/2000/svg">
<g clip-path="url(#clip0)">
<path d="M0.439972 45.7715H61.4685V488.229H0.439972V45.7715Z" fill="#04FF8E"/>
<path d="M366.611 167.829H427.64V488.229H366.611V167.829Z" fill="#8E2EFF"/>
<path d="M0.439972 472.971H427.64V534H0.439972V472.971Z" fill="#00C5FF"/>
<path d="M0.439972 0H244.554V61.0286H0.439972V0Z" fill="#FFF152"/>
<path d="M366.611 122.057V61.0286H305.583V0H244.554V183.086H427.64V122.057" fill="#FF5B5B"/>
<path d="M366.611 244.114V183.086H427.64" fill="#551C99"/>
<path fill-rule="evenodd" clip-rule="evenodd" d="M244.554 0V61.0286H183.526" fill="#999131"/>
<path d="M902.137 183.086C871.623 154.097 835.006 146.469 807.543 146.469C740.411 146.469 696.166 186.137 696.166 268.526C696.166 321.926 723.629 387.531 807.543 387.531C828.903 387.531 863.994 382.954 886.88 366.171V312.771H781.606V221.229H984.526V405.84C958.589 459.24 886.88 486.703 806.017 486.703C642.766 486.703 580.211 376.851 580.211 268.526C580.211 160.2 651.92 48.8229 807.543 48.8229C865.52 48.8229 915.869 61.0286 970.794 115.954L902.137 183.086ZM1040.98 476.023V61.0286H1156.93V476.023H1040.98ZM1347.65 363.12V474.497H1230.17V61.0286H1431.56C1542.94 61.0286 1597.86 131.211 1597.86 212.074C1597.86 297.514 1542.94 363.12 1431.56 363.12H1347.65ZM1347.65 263.949H1431.56C1463.6 263.949 1480.38 239.537 1480.38 213.6C1480.38 186.137 1463.6 161.726 1431.56 161.726H1347.65V263.949ZM1907.58 476.023V318.874H1758.06V476.023H1640.58V61.0286H1758.06V218.177H1907.58V61.0286H2023.54V476.023H1907.58ZM2276.81 202.92L2366.82 61.0286H2499.56V65.6057L2334.78 309.72V474.497H2217.3V309.72L2060.15 65.6057V61.0286H2192.89L2276.81 202.92Z" fill="white"/>
</g>
<defs>
<clipPath id="clip0">
<rect width="2500" height="534" fill="white"/>
</clipPath>
</defs>
</svg>
