<svg width="412" height="81" viewBox="0 0 412 81" fill="none" xmlns="http://www.w3.org/2000/svg">
<path d="M0.375732 6.94286H9.62766V74.0572H0.375732V6.94286Z" fill="#04FF8E"/>
<path d="M55.8873 25.4571H65.1393V74.0571H55.8873V25.4571Z" fill="#8E2EFF"/>
<path d="M0.375732 71.7429H65.1392V81H0.375732V71.7429Z" fill="#00C5FF"/>
<path d="M0.375977 0H37.3837V9.25714H0.375977V0Z" fill="#FFF152"/>
<path d="M55.8873 18.5143V9.25714H46.6354V0H37.3834V27.7714H65.1392V18.5143" fill="#FF5B5B"/>
<path d="M55.8873 37.0286V27.7714H65.1393" fill="#551C99"/>
<path fill-rule="evenodd" clip-rule="evenodd" d="M74.3912 0V9.25714H65.1393" fill="#999131"/>
<path d="M169.455 20.3657C164.829 15.9686 159.278 14.8114 155.114 14.8114C144.937 14.8114 138.23 20.8286 138.23 33.3257C138.23 41.4257 142.393 51.3771 155.114 51.3771C158.353 51.3771 163.672 50.6829 167.142 48.1371V40.0371H151.182V26.1514H181.945V54.1543C178.013 62.2543 167.142 66.42 154.883 66.42C130.134 66.42 120.651 49.7571 120.651 33.3257C120.651 16.8943 131.522 0 155.114 0C163.904 0 171.537 1.85143 179.863 10.1829L169.455 20.3657ZM190.503 64.8V1.85143H208.082V64.8H190.503ZM236.994 47.6743V64.5686H219.184V1.85143H249.715C266.6 1.85143 274.927 12.4971 274.927 24.7629C274.927 37.7229 266.6 47.6743 249.715 47.6743H236.994ZM236.994 32.6314H249.715C254.573 32.6314 257.117 28.9286 257.117 24.9943C257.117 20.8286 254.573 17.1257 249.715 17.1257H236.994V32.6314ZM321.88 64.8V40.9629H299.213V64.8H281.403V1.85143H299.213V25.6886H321.88V1.85143H339.459V64.8H321.88ZM377.855 23.3743L391.501 1.85143H411.624V2.54571L386.644 39.5743V64.5686H368.834V39.5743L345.01 2.54571V1.85143H365.133L377.855 23.3743Z" fill="black"/>
</svg>
