<svg width="2844" height="534" viewBox="0 0 2844 534" fill="none" xmlns="http://www.w3.org/2000/svg">
<path d="M0 45.7715H61.0286V488.229H0V45.7715Z" fill="#04FF8E"/>
<path d="M366.171 167.829H427.2V488.229H366.171V167.829Z" fill="#8E2EFF"/>
<path d="M0 472.971H427.2V534H0V472.971Z" fill="#00C5FF"/>
<path d="M0 0H244.114V61.0286H0V0Z" fill="#FFF152"/>
<path d="M366.171 122.057V61.0286H305.143V0H244.114V183.086H427.2V122.057" fill="#FF5B5B"/>
<path d="M366.171 244.114V183.086H427.2" fill="#551C99"/>
<path d="M869.6 204.2C862.8 193 853.4 184.4 841.4 178.4C829.8 172.4 816 169.4 800 169.4C770.4 169.4 747 179 729.8 198.2C713 217.4 704.6 243.2 704.6 275.6C704.6 312 713.6 339.8 731.6 359C750 377.8 776.6 387.2 811.4 387.2C852.6 387.2 882 368.6 899.6 331.4H781.4V246.8H1001V360.8C991.8 383.2 978.2 404.2 960.2 423.8C942.6 443.4 920.2 459.6 893 472.4C865.8 484.8 834.8 491 800 491C757.6 491 720 482 687.2 464C654.8 445.6 629.6 420.2 611.6 387.8C594 355 585.2 317.6 585.2 275.6C585.2 234 594 197 611.6 164.6C629.6 131.8 654.8 106.4 687.2 88.4C719.6 70 757 60.8 799.4 60.8C852.6 60.8 896.6 73.6 931.4 99.2001C966.2 124.8 987.8 159.8 996.2 204.2H869.6Z" fill="white"/>
<path d="M1171.3 65V488H1053.7V65H1171.3Z" fill="white"/>
<path d="M1525.07 65V158.6H1355.87V233H1480.67V322.4H1355.87V488H1238.27V65H1525.07Z" fill="white"/>
<path d="M1959.2 65L1810.4 353.6V488H1692.2V353.6L1543.4 65H1677.8L1752.2 228.2L1826.6 65H1959.2Z" fill="white"/>
<path d="M2052.3 492.8C2031.5 492.8 2014.7 487.2 2001.9 476C1989.5 464.4 1983.3 449.8 1983.3 432.2C1983.3 414.6 1989.5 400 2001.9 388.4C2014.7 376.8 2031.5 371 2052.3 371C2072.7 371 2089.1 376.8 2101.5 388.4C2114.3 400 2120.7 414.6 2120.7 432.2C2120.7 449.4 2114.3 463.8 2101.5 475.4C2089.1 487 2072.7 492.8 2052.3 492.8ZM2052.3 251.6C2031.5 251.6 2014.7 246 2001.9 234.8C1989.5 223.2 1983.3 208.6 1983.3 191C1983.3 173.4 1989.5 158.8 2001.9 147.2C2014.7 135.6 2031.5 129.8 2052.3 129.8C2072.7 129.8 2089.1 135.6 2101.5 147.2C2114.3 158.8 2120.7 173.4 2120.7 191C2120.7 208.2 2114.3 222.6 2101.5 234.2C2089.1 245.8 2072.7 251.6 2052.3 251.6Z" fill="white"/>
<path d="M2390.56 488L2306.56 332H2293.96V488H2176.36V65H2361.76C2395.76 65 2424.56 71 2448.16 83C2471.76 94.6 2489.56 110.8 2501.56 131.6C2513.56 152 2519.56 175 2519.56 200.6C2519.56 229.4 2511.56 254.8 2495.56 276.8C2479.96 298.4 2456.96 313.8 2426.56 323L2521.96 488H2390.56ZM2293.96 251.6H2352.16C2368.16 251.6 2380.16 247.8 2388.16 240.2C2396.16 232.6 2400.16 221.6 2400.16 207.2C2400.16 193.6 2395.96 183 2387.56 175.4C2379.56 167.4 2367.76 163.4 2352.16 163.4H2293.96V251.6Z" fill="white"/>
<path d="M2690.64 159.2V228.2H2825.64V317.6H2690.64V393.8H2843.64V488H2573.04V65H2843.64V159.2H2690.64Z" fill="white"/>
</svg>
